<?xml version="1.0" encoding="UTF-8"?> <svg xmlns="http://www.w3.org/2000/svg" width="256" height="256"><path fill="none" d="M-1-1h258v258H-1z"></path><path stroke="null" fill="#fff" d="M130.885 55.51c31.703-.056 59.37 21.36 67.098 51.934L244.5 93.309C229.332 42.022 182.636 11.5 130.885 11.5 63.25 11.5 11.5 62.785 11.5 128.089c0 66.546 54.19 116.411 119.385 116.411 53.536 0 99.577-32.83 113.615-81.69l-46.517-14.254c-7.358 30.811-35.254 52.404-67.098 51.935-41.639 0-68.585-33.303-68.585-72.402-.06-40.933 27.898-72.58 68.585-72.58z" clip-rule="evenodd" fill-rule="evenodd"></path></svg> 